<?xml version="1.0" encoding="utf-8"?>
<!-- Generator: Adobe Illustrator 16.0.0, SVG Export Plug-In . SVG Version: 6.00 Build 0)  -->
<!DOCTYPE svg PUBLIC "-//W3C//DTD SVG 1.1//EN" "http://www.w3.org/Graphics/SVG/1.1/DTD/svg11.dtd">
<svg version="1.1" xmlns="http://www.w3.org/2000/svg" xmlns:xlink="http://www.w3.org/1999/xlink" x="0px" y="0px" width="400px"
	 height="400px" viewBox="0 0 400 400" enable-background="new 0 0 400 400" xml:space="preserve">
<g id="img" display="none">
</g>
<g id="Layer_1">
	<ellipse fill="none" stroke="#FFFFFF" stroke-miterlimit="10" cx="67.215" cy="174.622" rx="0" ry="3.25"/>
	<polyline fill="none" stroke="#FFFFFF" stroke-miterlimit="10" points="200.422,106.782 170.609,106.782 170.609,72.665 
		164.713,72.665 164.713,137.852 131.964,137.852 131.964,171.372 67.215,171.372 67.215,177.872 101.497,177.872 101.497,205.872 	
		"/>
	<line fill="none" stroke="#FFFFFF" stroke-miterlimit="10" x1="101.457" y1="177.872" x2="101.457" y2="205.872"/>
	<line fill="none" stroke="#FFFFFF" stroke-miterlimit="10" x1="99.01" y1="177.872" x2="99.01" y2="205.872"/>
	<line fill="none" stroke="#FFFFFF" stroke-miterlimit="10" x1="96.564" y1="177.872" x2="96.564" y2="205.872"/>
	<line fill="none" stroke="#FFFFFF" stroke-miterlimit="10" x1="91.674" y1="177.872" x2="91.674" y2="205.872"/>
	<line fill="none" stroke="#FFFFFF" stroke-miterlimit="10" x1="86.781" y1="177.872" x2="86.781" y2="205.872"/>
	<line fill="none" stroke="#FFFFFF" stroke-miterlimit="10" x1="84.336" y1="177.872" x2="84.336" y2="205.872"/>
	<line fill="none" stroke="#FFFFFF" stroke-miterlimit="10" x1="76.998" y1="177.872" x2="76.998" y2="205.872"/>
	<line fill="none" stroke="#FFFFFF" stroke-miterlimit="10" x1="72.107" y1="177.872" x2="72.107" y2="205.872"/>
	<line fill="none" stroke="#FFFFFF" stroke-miterlimit="10" x1="94.119" y1="177.872" x2="94.119" y2="205.872"/>
	<line fill="none" stroke="#FFFFFF" stroke-miterlimit="10" x1="89.229" y1="177.872" x2="89.229" y2="205.872"/>
	<line fill="none" stroke="#FFFFFF" stroke-miterlimit="10" x1="81.891" y1="177.872" x2="81.891" y2="205.872"/>
	<line fill="none" stroke="#FFFFFF" stroke-miterlimit="10" x1="79.445" y1="177.872" x2="79.445" y2="205.872"/>
	<line fill="none" stroke="#FFFFFF" stroke-miterlimit="10" x1="74.553" y1="177.872" x2="74.553" y2="205.872"/>
	<line fill="none" stroke="#FFFFFF" stroke-miterlimit="10" x1="69.662" y1="177.872" x2="69.662" y2="205.872"/>
	<line fill="none" stroke="#FFFFFF" stroke-miterlimit="10" x1="67.215" y1="177.872" x2="67.215" y2="205.872"/>
	<line fill="none" stroke="#FFFFFF" stroke-miterlimit="10" x1="200.379" y1="104.46" x2="170.525" y2="104.46"/>
	<line fill="none" stroke="#FFFFFF" stroke-miterlimit="10" x1="200.379" y1="102.015" x2="170.525" y2="102.015"/>
	<line fill="none" stroke="#FFFFFF" stroke-miterlimit="10" x1="200.379" y1="97.124" x2="170.525" y2="97.124"/>
	<line fill="none" stroke="#FFFFFF" stroke-miterlimit="10" x1="200.379" y1="92.231" x2="170.525" y2="92.231"/>
	<line fill="none" stroke="#FFFFFF" stroke-miterlimit="10" x1="200.379" y1="89.786" x2="170.525" y2="89.786"/>
	<line fill="none" stroke="#FFFFFF" stroke-miterlimit="10" x1="200.379" y1="82.448" x2="170.525" y2="82.448"/>
	<line fill="none" stroke="#FFFFFF" stroke-miterlimit="10" x1="200.379" y1="77.558" x2="170.525" y2="77.558"/>
	<line fill="none" stroke="#FFFFFF" stroke-miterlimit="10" x1="200.379" y1="99.569" x2="170.525" y2="99.569"/>
	<line fill="none" stroke="#FFFFFF" stroke-miterlimit="10" x1="200.379" y1="94.679" x2="170.525" y2="94.679"/>
	<line fill="none" stroke="#FFFFFF" stroke-miterlimit="10" x1="200.379" y1="87.341" x2="170.525" y2="87.341"/>
	<line fill="none" stroke="#FFFFFF" stroke-miterlimit="10" x1="200.379" y1="84.896" x2="170.525" y2="84.896"/>
	<line fill="none" stroke="#FFFFFF" stroke-miterlimit="10" x1="200.379" y1="80.003" x2="170.525" y2="80.003"/>
	<line fill="none" stroke="#FFFFFF" stroke-miterlimit="10" x1="200.379" y1="75.112" x2="170.525" y2="75.112"/>
	<line fill="none" stroke="#FFFFFF" stroke-miterlimit="10" x1="200.379" y1="72.665" x2="170.525" y2="72.665"/>
	<circle fill="#FFFFFF" cx="181.096" cy="111.768" r="2.209"/>
	<circle fill="#FFFFFF" cx="168.596" cy="111.768" r="2.209"/>
	<circle fill="#FFFFFF" cx="193.596" cy="111.768" r="2.209"/>
	<circle fill="#FFFFFF" cx="106.317" cy="186.546" r="2.209"/>
	<circle fill="#FFFFFF" cx="106.317" cy="174.046" r="2.209"/>
	<circle fill="#FFFFFF" cx="106.317" cy="199.046" r="2.209"/>
	<ellipse fill="none" stroke="#FFFFFF" stroke-miterlimit="10" cx="335.254" cy="174.622" rx="0" ry="3.25"/>
	<polyline fill="none" stroke="#FFFFFF" stroke-miterlimit="10" points="200.4,106.782 231.859,106.782 231.859,72.665 
		237.756,72.665 237.756,137.852 270.505,137.852 270.505,171.372 335.254,171.372 335.254,177.872 300.972,177.872 
		300.972,205.872 	"/>
	<line fill="none" stroke="#FFFFFF" stroke-miterlimit="10" x1="301.012" y1="177.872" x2="301.012" y2="205.872"/>
	<line fill="none" stroke="#FFFFFF" stroke-miterlimit="10" x1="200.443" y1="104.46" x2="231.943" y2="104.46"/>
	<line fill="none" stroke="#FFFFFF" stroke-miterlimit="10" x1="200.443" y1="102.015" x2="231.943" y2="102.015"/>
	<line fill="none" stroke="#FFFFFF" stroke-miterlimit="10" x1="200.443" y1="97.124" x2="231.943" y2="97.124"/>
	<line fill="none" stroke="#FFFFFF" stroke-miterlimit="10" x1="200.443" y1="92.231" x2="231.943" y2="92.231"/>
	<line fill="none" stroke="#FFFFFF" stroke-miterlimit="10" x1="200.443" y1="89.786" x2="231.943" y2="89.786"/>
	<line fill="none" stroke="#FFFFFF" stroke-miterlimit="10" x1="200.443" y1="82.448" x2="231.943" y2="82.448"/>
	<line fill="none" stroke="#FFFFFF" stroke-miterlimit="10" x1="200.443" y1="77.558" x2="231.943" y2="77.558"/>
	<line fill="none" stroke="#FFFFFF" stroke-miterlimit="10" x1="200.443" y1="99.569" x2="231.943" y2="99.569"/>
	<line fill="none" stroke="#FFFFFF" stroke-miterlimit="10" x1="200.443" y1="94.679" x2="231.943" y2="94.679"/>
	<line fill="none" stroke="#FFFFFF" stroke-miterlimit="10" x1="200.443" y1="87.341" x2="231.943" y2="87.341"/>
	<line fill="none" stroke="#FFFFFF" stroke-miterlimit="10" x1="200.443" y1="84.896" x2="231.943" y2="84.896"/>
	<line fill="none" stroke="#FFFFFF" stroke-miterlimit="10" x1="200.443" y1="80.003" x2="231.943" y2="80.003"/>
	<line fill="none" stroke="#FFFFFF" stroke-miterlimit="10" x1="200.443" y1="75.112" x2="231.943" y2="75.112"/>
	<line fill="none" stroke="#FFFFFF" stroke-miterlimit="10" x1="200.443" y1="72.665" x2="231.943" y2="72.665"/>
	<circle fill="#FFFFFF" cx="221.373" cy="111.768" r="2.209"/>
	<circle fill="#FFFFFF" cx="233.873" cy="111.768" r="2.209"/>
	<circle fill="#FFFFFF" cx="208.873" cy="111.768" r="2.209"/>
	<circle fill="#FFFFFF" cx="296.151" cy="186.546" r="2.209"/>
	<circle fill="#FFFFFF" cx="296.151" cy="174.046" r="2.209"/>
	<circle fill="#FFFFFF" cx="296.151" cy="199.046" r="2.209"/>
	<ellipse fill="none" stroke="#FFFFFF" stroke-miterlimit="10" cx="67.215" cy="239.81" rx="0" ry="3.25"/>
	<polyline fill="none" stroke="#FFFFFF" stroke-miterlimit="10" points="200.422,307.649 170.609,307.649 170.609,341.767 
		164.713,341.767 164.713,276.58 131.964,276.58 131.964,243.06 67.215,243.06 67.215,236.56 101.497,236.56 101.497,205.872 	"/>
	<line fill="none" stroke="#FFFFFF" stroke-miterlimit="10" x1="101.457" y1="236.56" x2="101.457" y2="205.872"/>
	<line fill="none" stroke="#FFFFFF" stroke-miterlimit="10" x1="99.01" y1="236.56" x2="99.01" y2="205.872"/>
	<line fill="none" stroke="#FFFFFF" stroke-miterlimit="10" x1="96.564" y1="236.56" x2="96.564" y2="205.872"/>
	<line fill="none" stroke="#FFFFFF" stroke-miterlimit="10" x1="91.674" y1="236.56" x2="91.674" y2="205.872"/>
	<line fill="none" stroke="#FFFFFF" stroke-miterlimit="10" x1="86.781" y1="236.56" x2="86.781" y2="205.872"/>
	<line fill="none" stroke="#FFFFFF" stroke-miterlimit="10" x1="84.336" y1="236.56" x2="84.336" y2="205.872"/>
	<line fill="none" stroke="#FFFFFF" stroke-miterlimit="10" x1="76.998" y1="236.56" x2="76.998" y2="205.872"/>
	<line fill="none" stroke="#FFFFFF" stroke-miterlimit="10" x1="72.107" y1="236.56" x2="72.107" y2="205.872"/>
	<line fill="none" stroke="#FFFFFF" stroke-miterlimit="10" x1="94.119" y1="236.56" x2="94.119" y2="205.872"/>
	<line fill="none" stroke="#FFFFFF" stroke-miterlimit="10" x1="89.229" y1="236.56" x2="89.229" y2="205.872"/>
	<line fill="none" stroke="#FFFFFF" stroke-miterlimit="10" x1="81.891" y1="236.56" x2="81.891" y2="205.872"/>
	<line fill="none" stroke="#FFFFFF" stroke-miterlimit="10" x1="79.445" y1="236.56" x2="79.445" y2="205.872"/>
	<line fill="none" stroke="#FFFFFF" stroke-miterlimit="10" x1="74.553" y1="236.56" x2="74.553" y2="205.872"/>
	<line fill="none" stroke="#FFFFFF" stroke-miterlimit="10" x1="69.662" y1="236.56" x2="69.662" y2="205.872"/>
	<line fill="none" stroke="#FFFFFF" stroke-miterlimit="10" x1="67.215" y1="236.56" x2="67.215" y2="205.872"/>
	<line fill="none" stroke="#FFFFFF" stroke-miterlimit="10" x1="200.379" y1="309.972" x2="170.525" y2="309.972"/>
	<line fill="none" stroke="#FFFFFF" stroke-miterlimit="10" x1="200.379" y1="312.417" x2="170.525" y2="312.417"/>
	<line fill="none" stroke="#FFFFFF" stroke-miterlimit="10" x1="200.379" y1="317.308" x2="170.525" y2="317.308"/>
	<line fill="none" stroke="#FFFFFF" stroke-miterlimit="10" x1="200.379" y1="322.2" x2="170.525" y2="322.2"/>
	<line fill="none" stroke="#FFFFFF" stroke-miterlimit="10" x1="200.379" y1="324.646" x2="170.525" y2="324.646"/>
	<line fill="none" stroke="#FFFFFF" stroke-miterlimit="10" x1="200.379" y1="331.983" x2="170.525" y2="331.983"/>
	<line fill="none" stroke="#FFFFFF" stroke-miterlimit="10" x1="200.379" y1="336.874" x2="170.525" y2="336.874"/>
	<line fill="none" stroke="#FFFFFF" stroke-miterlimit="10" x1="200.379" y1="314.862" x2="170.525" y2="314.862"/>
	<line fill="none" stroke="#FFFFFF" stroke-miterlimit="10" x1="200.379" y1="319.753" x2="170.525" y2="319.753"/>
	<line fill="none" stroke="#FFFFFF" stroke-miterlimit="10" x1="200.379" y1="327.091" x2="170.525" y2="327.091"/>
	<line fill="none" stroke="#FFFFFF" stroke-miterlimit="10" x1="200.379" y1="329.536" x2="170.525" y2="329.536"/>
	<line fill="none" stroke="#FFFFFF" stroke-miterlimit="10" x1="200.379" y1="334.429" x2="170.525" y2="334.429"/>
	<line fill="none" stroke="#FFFFFF" stroke-miterlimit="10" x1="200.379" y1="339.319" x2="170.525" y2="339.319"/>
	<line fill="none" stroke="#FFFFFF" stroke-miterlimit="10" x1="200.379" y1="341.767" x2="170.525" y2="341.767"/>
	<circle fill="#FFFFFF" cx="181.096" cy="302.664" r="2.209"/>
	<circle fill="#FFFFFF" cx="168.596" cy="302.664" r="2.209"/>
	<circle fill="#FFFFFF" cx="193.596" cy="302.664" r="2.209"/>
	<circle fill="#FFFFFF" cx="106.317" cy="227.886" r="2.209"/>
	<circle fill="#FFFFFF" cx="106.317" cy="240.386" r="2.209"/>
	<circle fill="#FFFFFF" cx="106.317" cy="215.386" r="2.209"/>
	<ellipse fill="none" stroke="#FFFFFF" stroke-miterlimit="10" cx="335.254" cy="239.81" rx="0" ry="3.25"/>
	<polyline fill="none" stroke="#FFFFFF" stroke-miterlimit="10" points="200.357,307.649 231.859,307.649 231.859,341.767 
		237.756,341.767 237.756,276.58 270.505,276.58 270.505,243.06 335.254,243.06 335.254,236.56 300.972,236.56 300.972,208.56 	"/>
	<line fill="none" stroke="#FFFFFF" stroke-miterlimit="10" x1="301.012" y1="236.56" x2="301.012" y2="205.872"/>
	<line fill="none" stroke="#FFFFFF" stroke-miterlimit="10" x1="303.459" y1="236.56" x2="303.459" y2="177.966"/>
	<line fill="none" stroke="#FFFFFF" stroke-miterlimit="10" x1="305.904" y1="236.56" x2="305.904" y2="177.966"/>
	<line fill="none" stroke="#FFFFFF" stroke-miterlimit="10" x1="310.795" y1="236.56" x2="310.795" y2="177.966"/>
	<line fill="none" stroke="#FFFFFF" stroke-miterlimit="10" x1="315.688" y1="236.56" x2="315.688" y2="177.966"/>
	<line fill="none" stroke="#FFFFFF" stroke-miterlimit="10" x1="318.133" y1="236.56" x2="318.133" y2="177.966"/>
	<line fill="none" stroke="#FFFFFF" stroke-miterlimit="10" x1="325.471" y1="236.56" x2="325.471" y2="177.966"/>
	<line fill="none" stroke="#FFFFFF" stroke-miterlimit="10" x1="330.361" y1="236.56" x2="330.361" y2="177.966"/>
	<line fill="none" stroke="#FFFFFF" stroke-miterlimit="10" x1="308.35" y1="236.56" x2="308.35" y2="177.966"/>
	<line fill="none" stroke="#FFFFFF" stroke-miterlimit="10" x1="313.24" y1="236.56" x2="313.24" y2="177.966"/>
	<line fill="none" stroke="#FFFFFF" stroke-miterlimit="10" x1="320.578" y1="236.56" x2="320.578" y2="177.966"/>
	<line fill="none" stroke="#FFFFFF" stroke-miterlimit="10" x1="323.023" y1="236.56" x2="323.023" y2="177.966"/>
	<line fill="none" stroke="#FFFFFF" stroke-miterlimit="10" x1="327.916" y1="236.56" x2="327.916" y2="177.966"/>
	<line fill="none" stroke="#FFFFFF" stroke-miterlimit="10" x1="332.807" y1="236.56" x2="332.807" y2="177.966"/>
	<line fill="none" stroke="#FFFFFF" stroke-miterlimit="10" x1="335.254" y1="236.56" x2="335.254" y2="177.966"/>
	<line fill="none" stroke="#FFFFFF" stroke-miterlimit="10" x1="200.4" y1="309.972" x2="231.943" y2="309.972"/>
	<line fill="none" stroke="#FFFFFF" stroke-miterlimit="10" x1="200.4" y1="312.417" x2="231.943" y2="312.417"/>
	<line fill="none" stroke="#FFFFFF" stroke-miterlimit="10" x1="200.4" y1="317.308" x2="231.943" y2="317.308"/>
	<line fill="none" stroke="#FFFFFF" stroke-miterlimit="10" x1="200.4" y1="322.2" x2="231.943" y2="322.2"/>
	<line fill="none" stroke="#FFFFFF" stroke-miterlimit="10" x1="200.4" y1="324.646" x2="231.943" y2="324.646"/>
	<line fill="none" stroke="#FFFFFF" stroke-miterlimit="10" x1="200.4" y1="331.983" x2="231.943" y2="331.983"/>
	<line fill="none" stroke="#FFFFFF" stroke-miterlimit="10" x1="200.4" y1="336.874" x2="231.943" y2="336.874"/>
	<line fill="none" stroke="#FFFFFF" stroke-miterlimit="10" x1="200.4" y1="314.862" x2="231.943" y2="314.862"/>
	<line fill="none" stroke="#FFFFFF" stroke-miterlimit="10" x1="200.4" y1="319.753" x2="231.943" y2="319.753"/>
	<line fill="none" stroke="#FFFFFF" stroke-miterlimit="10" x1="200.4" y1="327.091" x2="231.943" y2="327.091"/>
	<line fill="none" stroke="#FFFFFF" stroke-miterlimit="10" x1="200.4" y1="329.536" x2="231.943" y2="329.536"/>
	<line fill="none" stroke="#FFFFFF" stroke-miterlimit="10" x1="200.4" y1="334.429" x2="231.943" y2="334.429"/>
	<line fill="none" stroke="#FFFFFF" stroke-miterlimit="10" x1="200.4" y1="339.319" x2="231.943" y2="339.319"/>
	<line fill="none" stroke="#FFFFFF" stroke-miterlimit="10" x1="200.4" y1="341.767" x2="231.943" y2="341.767"/>
	<circle fill="#FFFFFF" cx="221.373" cy="302.664" r="2.209"/>
	<circle fill="#FFFFFF" cx="233.873" cy="302.664" r="2.209"/>
	<circle fill="#FFFFFF" cx="208.873" cy="302.664" r="2.209"/>
	<circle fill="#FFFFFF" cx="296.151" cy="227.886" r="2.209"/>
	<circle fill="#FFFFFF" cx="296.151" cy="240.386" r="2.209"/>
	<circle fill="#FFFFFF" cx="296.151" cy="215.386" r="2.209"/>
	<g>
		<polygon fill="#FFFFFF" points="137.854,143.304 190.939,143.304 190.939,155.981 194.439,155.981 194.439,143.304 
			195.266,143.304 195.266,139.804 170.346,139.804 170.346,113.752 166.846,113.752 166.846,139.804 137.854,139.804 
			137.303,139.804 134.354,139.804 134.354,172.296 108.302,172.296 108.302,175.796 134.354,175.796 134.354,203.294 
			137.854,203.294 137.854,202.502 149.703,202.502 149.703,199.002 137.854,199.002 137.854,175.796 149.704,175.796 
			149.704,172.296 137.854,172.296 		"/>
		<path fill="#FFFFFF" d="M194.439,172.755v-11.951h-3.5v11.951h-19.137h-5.059h-10.941v3.5h10.941v22.747h-10.941v3.5h10.941h1.559
			h2.033c1.186-14.72,13.498-26.3,28.523-26.3v-3.447H194.439z"/>
	</g>
	<g>
		<polygon fill="#FFFFFF" points="268.115,172.296 268.115,139.804 265.166,139.804 264.615,139.804 235.623,139.804 
			235.623,113.752 232.123,113.752 232.123,139.804 207.203,139.804 207.203,143.304 208.029,143.304 208.029,155.981 
			211.529,155.981 211.529,143.304 264.615,143.304 264.615,172.296 252.765,172.296 252.765,175.796 264.615,175.796 
			264.615,199.002 252.766,199.002 252.766,202.502 264.615,202.502 264.615,203.294 268.115,203.294 268.115,175.796 
			294.167,175.796 294.167,172.296 		"/>
		<path fill="#FFFFFF" d="M230.666,172.755h-19.137v-11.951h-3.5v11.951h-4.42v3.447c15.025,0,27.338,11.58,28.523,26.3h2.033h1.559
			h10.941v-3.5h-10.941v-22.747h10.941v-3.5h-10.941H230.666z"/>
	</g>
	<g>
		<polygon fill="#FFFFFF" points="294.167,238.636 268.115,238.636 268.115,211.138 264.615,211.138 264.615,211.93 252.766,211.93 
			252.766,215.43 264.615,215.43 264.615,238.636 252.765,238.636 252.765,242.136 264.615,242.136 264.615,271.128 
			211.529,271.128 211.529,258.45 208.029,258.45 208.029,271.128 207.203,271.128 207.203,274.628 232.123,274.628 232.123,300.68 
			235.623,300.68 235.623,274.628 264.615,274.628 265.166,274.628 268.115,274.628 268.115,242.136 294.167,242.136 		"/>
		<path fill="#FFFFFF" d="M208.029,253.628h3.5v-11.951h19.137h5.059h10.941v-3.5h-10.941V215.43h10.941v-3.5h-10.941h-1.559h-2.033
			c-1.186,14.72-13.498,26.3-28.523,26.3v3.447h4.42V253.628z"/>
	</g>
	<g>
		<polygon fill="#FFFFFF" points="194.439,258.45 190.939,258.45 190.939,271.128 137.854,271.128 137.854,242.136 149.704,242.136 
			149.704,238.636 137.854,238.636 137.854,215.43 149.703,215.43 149.703,211.93 137.854,211.93 137.854,211.138 134.354,211.138 
			134.354,238.636 108.302,238.636 108.302,242.136 134.354,242.136 134.354,274.628 137.303,274.628 137.854,274.628 
			166.846,274.628 166.846,300.68 170.346,300.68 170.346,274.628 195.266,274.628 195.266,271.128 194.439,271.128 		"/>
		<path fill="#FFFFFF" d="M170.336,211.93h-2.033h-1.559h-10.941v3.5h10.941v22.747h-10.941v3.5h10.941h5.059h19.137v11.951h3.5
			v-11.951h4.42v-3.447C183.834,238.229,171.521,226.649,170.336,211.93z"/>
	</g>
</g>
<g id="Layer_3">
</g>
</svg>
